<svg width="446" height="320" viewBox="0 0 446 320" fill="none" xmlns="http://www.w3.org/2000/svg">
<path d="M185.327 138.232C182.936 137.42 180.4 137.13 177.888 137.379C175.376 137.628 172.946 138.412 170.761 139.677L8.74304 233.525C8.68304 233.56 8.62333 233.595 8.56433 233.632C0.364333 238.68 -2.25376 248.026 2.04724 256.889C7.41224 267.937 26.4172 278.338 49.3402 282.771C57.687 284.37 66.1677 285.169 74.6664 285.157C92.9134 285.157 115.313 281.565 140.117 269.999C159.383 261.017 177.703 241.399 189.124 217.515C201.156 192.353 203.539 166.971 195.662 147.877C194.726 145.625 193.32 143.6 191.537 141.937C189.755 140.273 187.637 139.01 185.327 138.232Z" fill="#7CE0D6"/>
<path d="M436.461 233.632C436.402 233.595 436.341 233.559 436.281 233.524L274.267 139.677C272.083 138.411 269.653 137.628 267.141 137.378C264.629 137.129 262.092 137.42 259.701 138.232C257.39 139.009 255.272 140.272 253.489 141.936C251.706 143.6 250.299 145.625 249.363 147.878C241.486 166.971 243.864 192.352 255.902 217.514C267.322 241.395 285.641 261.015 304.902 269.999C329.71 281.565 352.106 285.157 370.353 285.157C378.852 285.169 387.332 284.37 395.678 282.771C418.602 278.338 437.607 267.936 442.97 256.89C447.279 248.028 444.662 238.681 436.461 233.632Z" fill="#7CE0D6"/>
<path fill-rule="evenodd" clip-rule="evenodd" d="M156.394 7.7515C156.394 3.47046 159.864 0 164.145 0C177.545 0 190.397 5.32331 199.872 14.7987C209.348 24.274 214.671 37.1251 214.671 50.5254C214.671 54.8065 211.201 58.2769 206.919 58.2769C202.638 58.2769 199.168 54.8065 199.168 50.5254C199.168 41.237 195.478 32.329 188.91 25.761C182.342 19.193 173.434 15.503 164.145 15.503C159.864 15.503 156.394 12.0325 156.394 7.7515Z" fill="#2C3437"/>
<path fill-rule="evenodd" clip-rule="evenodd" d="M281.857 15.503C277.258 15.503 272.704 16.409 268.455 18.169C264.206 19.9291 260.345 22.5087 257.093 25.7609C253.841 29.013 251.261 32.8739 249.501 37.123C247.742 41.3719 246.836 45.9259 246.836 50.5252C246.836 54.8063 243.366 58.2768 239.085 58.2769C234.804 58.277 231.333 54.8066 231.333 50.5256C231.333 43.8907 232.639 37.3208 235.178 31.1905C237.717 25.0605 241.439 19.4905 246.131 14.7987C250.822 10.107 256.392 6.38536 262.522 3.84617C268.652 1.30701 275.222 0 281.857 0C286.138 0 289.609 3.47046 289.609 7.7515C289.609 12.0325 286.138 15.503 281.857 15.503Z" fill="#2C3437"/>
<path d="M298.935 271.423H131.481L207.55 315.323C212.099 317.961 217.264 319.352 222.523 319.354C227.782 319.357 232.948 317.973 237.5 315.34L313.6 271.42L298.935 271.423Z" fill="#2C3437"/>
<path d="M322.406 174.462H114.871V224.775H330.157V174.462H322.406Z" fill="#2C3437"/>
<path d="M315.222 128.899L313.342 127.814H131.743L129.854 128.906C125.314 131.534 121.541 135.307 118.913 139.848C116.285 144.389 114.893 149.54 114.875 154.787V174.462H330.161V154.79C330.142 149.547 328.754 144.4 326.134 139.858C323.513 135.317 319.752 131.539 315.222 128.899Z" fill="#FFDD0F"/>
<path d="M322.406 224.774H114.871V244.549C114.884 249.805 116.274 254.967 118.904 259.519C121.534 264.07 125.311 267.853 129.859 270.49L131.481 271.427H313.6L315.252 270.472C319.778 267.823 323.533 264.038 326.146 259.492C328.759 254.946 330.14 249.796 330.152 244.552V224.779L322.406 224.774Z" fill="#FFDD0F"/>
<path d="M237.508 84.0498C232.962 81.4155 227.8 80.0277 222.545 80.0269C217.291 80.026 212.129 81.4119 207.581 84.0447L131.739 127.815H313.343L237.508 84.0498Z" fill="#2C3437"/>
</svg>
